<svg width="962" height="962" viewBox="0 0 962 962" fill="none" xmlns="http://www.w3.org/2000/svg">
<circle cx="481" cy="481" r="481" fill="black"/>
<path d="M408.344 593.425C430.417 606.168 455.465 613.3 480.969 613.175C482.193 613.17 483.418 613.164 484.68 613.158C507.941 612.849 535.531 607.235 554.812 593.433C560.835 589.182 565.281 587.298 572.618 588.494C576.906 589.412 581.087 590.588 585.281 591.863C586.596 592.228 587.911 592.593 589.227 592.957C612.792 600.082 633.253 613.338 651.281 629.863C652.002 630.501 652.722 631.139 653.465 631.797C665.169 642.722 674.054 656.697 681.281 670.863C681.598 671.468 681.914 672.073 682.241 672.696C695.901 698.99 705.587 739.843 698.477 769.183C695.81 775.344 691.252 778.968 685.281 781.863C681.704 783.025 678.309 782.992 674.564 782.997C673.887 783 673.209 783.002 672.511 783.004C670.23 783.011 667.949 783.011 665.668 783.01C664.021 783.013 662.373 783.017 660.725 783.021C656.189 783.031 651.653 783.035 647.117 783.038C642.228 783.042 637.339 783.051 632.45 783.06C620.64 783.08 608.83 783.09 597.02 783.099C591.46 783.103 585.9 783.108 580.34 783.114C561.862 783.131 543.385 783.145 524.907 783.152C520.111 783.154 515.316 783.156 510.52 783.158C508.733 783.159 508.733 783.159 506.909 783.16C487.592 783.168 468.276 783.193 448.96 783.226C429.135 783.259 409.31 783.277 389.484 783.28C378.351 783.282 367.217 783.291 356.083 783.316C346.603 783.338 337.123 783.346 327.643 783.337C322.806 783.332 317.969 783.334 313.131 783.353C308.702 783.371 304.273 783.37 299.844 783.354C298.243 783.352 296.641 783.356 295.04 783.368C285.665 783.433 278.41 783.358 271.039 776.898C270.231 775.922 270.231 775.922 269.406 774.925C268.852 774.277 268.298 773.629 267.727 772.961C263.895 767.4 263.931 762.295 263.969 755.738C263.973 754.738 263.977 753.737 263.981 752.706C264.59 710.627 276.44 670.973 304.281 638.863C305.001 638.01 305.72 637.156 306.461 636.277C311.858 630.035 317.764 624.903 324.281 619.863C325.184 619.133 326.086 618.404 327.016 617.652C344.096 604.205 364.183 595.224 385.156 589.8C385.982 589.584 386.808 589.368 387.66 589.145C396.183 587.1 401.043 589.034 408.344 593.425Z" fill="white"/>
<path d="M496.102 181.898C497.187 182.363 497.187 182.363 498.295 182.837C499.855 183.506 501.412 184.181 502.967 184.86C506.329 186.329 509.703 187.77 513.076 189.214C514.841 189.969 516.604 190.725 518.367 191.483C527.4 195.36 536.492 199.088 545.594 202.8C548.857 204.134 552.12 205.469 555.383 206.804C556.196 207.137 557.009 207.47 557.847 207.813C567.068 211.589 576.268 215.414 585.469 219.238C599.574 225.099 613.701 230.905 627.844 236.675C645.917 244.05 663.946 251.528 681.957 259.052C682.911 259.45 683.865 259.848 684.847 260.259C686.704 261.034 688.561 261.811 690.417 262.589C694.713 264.388 699.016 266.165 703.342 267.893C704.129 268.209 704.917 268.525 705.727 268.851C707.186 269.436 708.646 270.014 710.11 270.585C716.311 273.077 716.311 273.077 718.281 275.863C718.781 279.3 718.781 279.3 718.281 282.863C714.748 286.256 710.903 288.135 706.449 290.097C705.813 290.38 705.176 290.663 704.52 290.955C702.506 291.848 700.488 292.73 698.469 293.613C697.094 294.22 695.72 294.828 694.346 295.437C690.994 296.92 687.639 298.394 684.281 299.863C684.165 310.972 684.077 322.081 684.022 333.191C683.996 338.35 683.961 343.508 683.904 348.667C683.85 353.647 683.82 358.626 683.807 363.606C683.798 365.505 683.78 367.403 683.753 369.302C683.716 371.964 683.711 374.625 683.714 377.287C683.696 378.07 683.678 378.852 683.659 379.659C683.713 385.414 685.261 387.771 689.281 391.863C693.756 398.748 694.219 405.836 693.281 413.863C691.553 421.312 688.296 427.154 683.281 432.863C682.425 433.894 682.425 433.894 681.551 434.945C677.291 439.713 677.291 439.713 673.344 440.3C664.19 436.004 658.658 426.588 654.906 417.55C653.033 406.499 654.079 398.37 660.281 388.863C660.8 388.472 661.32 388.081 661.855 387.678C664.075 384.853 663.721 381.809 663.714 378.362C663.724 377.601 663.734 376.84 663.745 376.055C663.775 373.539 663.784 371.024 663.793 368.507C663.81 366.763 663.828 365.018 663.847 363.274C663.895 358.682 663.925 354.091 663.951 349.499C663.981 344.814 664.027 340.128 664.072 335.443C664.158 326.25 664.226 317.056 664.281 307.863C663.722 308.113 663.163 308.364 662.586 308.622C656.781 311.222 650.974 313.816 645.165 316.408C642.995 317.377 640.827 318.347 638.658 319.318C635.547 320.711 632.434 322.1 629.32 323.488C628.346 323.925 627.372 324.363 626.369 324.814C625.018 325.414 625.018 325.414 623.639 326.027C622.844 326.382 622.049 326.738 621.23 327.104C619.281 327.863 619.281 327.863 617.281 327.863C617.281 348.653 617.281 369.443 617.281 390.863C606.886 388.388 606.886 388.388 596.281 385.863C592.121 385.08 588.024 384.343 583.844 383.738C582.784 383.58 581.724 383.421 580.632 383.258C556.073 379.719 531.372 377.706 506.566 377.695C504.781 377.692 502.996 377.688 501.211 377.685C497.48 377.679 493.749 377.677 490.019 377.678C486.266 377.678 482.513 377.671 478.76 377.657C450.066 377.554 421.374 377.744 392.906 381.8C391.631 381.974 390.355 382.147 389.041 382.326C374.649 384.309 360.478 386.774 346.281 389.863C346.148 369.167 346.436 348.543 347.281 327.863C346.058 327.48 344.835 327.097 343.574 326.703C337.42 324.646 331.53 322.035 325.594 319.425C324.32 318.869 323.045 318.313 321.771 317.757C318.91 316.509 316.049 315.258 313.189 314.007C307.678 311.597 302.161 309.201 296.645 306.804C295.636 306.366 294.628 305.928 293.59 305.477C291.542 304.588 289.495 303.699 287.448 302.809C275.369 297.562 275.369 297.562 270.104 295.267C265.878 293.425 261.651 291.59 257.413 289.776C256.667 289.455 255.921 289.134 255.153 288.803C253.777 288.211 252.399 287.622 251.019 287.037C248.325 285.874 246.377 284.959 244.281 282.863C243.906 279.988 243.906 279.988 244.281 276.863C247.428 272.795 251.553 271.202 256.199 269.351C257.388 268.863 257.388 268.863 258.601 268.366C261.22 267.293 263.844 266.234 266.469 265.175C268.316 264.421 270.162 263.666 272.009 262.91C275.85 261.338 279.693 259.77 283.538 258.206C291.555 254.94 299.549 251.62 307.542 248.298C310.109 247.232 312.677 246.167 315.244 245.103C323.329 241.752 331.412 238.395 339.488 235.023C340.229 234.714 340.971 234.404 341.734 234.086C342.471 233.778 343.208 233.47 343.968 233.153C362.642 225.358 381.353 217.654 400.082 209.991C406.496 207.367 412.907 204.736 419.319 202.105C424.022 200.177 428.726 198.252 433.433 196.335C434.34 195.965 435.248 195.596 436.183 195.215C437.982 194.482 439.78 193.75 441.579 193.018C446.477 191.02 451.364 188.996 456.238 186.94C459.007 185.773 461.783 184.621 464.56 183.472C466.4 182.704 468.232 181.915 470.063 181.126C471.16 180.674 472.257 180.223 473.387 179.757C474.316 179.364 475.246 178.971 476.204 178.565C483.281 176.95 489.644 179.025 496.102 181.898Z" fill="white"/>
<path d="M484.281 397.676C485.534 397.676 486.787 397.677 488.078 397.677C506.888 397.702 525.554 397.944 544.281 399.863C545.56 399.992 546.839 400.121 548.156 400.254C567.788 402.282 587.006 405.681 606.281 409.863C617.55 441.964 615.833 477.079 601.297 507.954C591.592 528.043 578.224 545.456 560.281 558.863C559.286 559.612 558.291 560.361 557.266 561.133C530.366 580.579 496.511 589.964 463.485 585.039C460.051 584.439 456.667 583.688 453.281 582.863C452.599 582.702 451.917 582.541 451.215 582.375C427.202 576.535 406.842 564.002 389.281 546.863C388.579 546.222 387.876 545.582 387.152 544.922C365.507 524.676 351.949 493.038 350.922 463.541C350.869 460.696 350.865 457.854 350.89 455.009C350.906 452.863 350.89 450.719 350.871 448.574C350.854 438.713 351.968 429.448 354.281 419.863C354.5 418.834 354.718 417.804 354.943 416.744C355.739 413.949 356.424 412.101 358.281 409.863C362.203 407.982 366.118 407.465 370.406 406.926C372.175 406.649 372.175 406.649 373.98 406.367C376.343 406.001 378.709 405.652 381.078 405.322C383.707 404.945 386.303 404.513 388.91 404.008C398.36 402.188 407.9 401.191 417.469 400.238C418.685 400.115 419.9 399.992 421.153 399.865C442.15 397.879 463.205 397.657 484.281 397.676Z" fill="white"/>
</svg>
